<svg width="198" height="178" viewBox="0 0 198 178" fill="none" xmlns="http://www.w3.org/2000/svg">
<path d="M197.999 93.7027H188.646V103.867H179.291V93.7027H169.938V83.5413H179.291V73.3789H188.646V83.5413H197.999V93.7027ZM163.869 93.7027H154.517V103.867H145.164V93.7027H135.811V83.5413H145.164V73.3789H154.517V83.5413H163.869V93.7027Z" fill="white" fill-opacity="0.4"/>
<path d="M117.087 110.381C110.114 123.817 96.8637 132.898 81.6562 132.898C66.542 132.898 53.3663 123.931 46.3576 110.637C42.8367 103.966 40.9877 96.4089 40.995 88.7191C40.995 64.3207 59.2004 44.5414 81.6562 44.5414C96.6732 44.5414 109.78 53.3962 116.823 66.5545L152.363 44.3188C138.237 17.8245 111.863 0 81.6562 0C36.5579 0 0 39.7215 0 88.7191C0 104.794 3.93585 119.868 10.8147 132.871C24.9053 159.505 51.3537 177.439 81.6562 177.439C112.014 177.439 138.504 159.433 152.575 132.72L117.087 110.381Z" fill="white" fill-opacity="0.4"/>
</svg>
