<svg width="163" height="143" viewBox="0 0 163 143" fill="none" xmlns="http://www.w3.org/2000/svg">
<path d="M197.999 58.3941H188.646V68.5587H179.291V58.3941H169.938V48.2328H179.291V38.0703H188.646V48.2328H197.999V58.3941ZM163.869 58.3941H154.517V68.5587H145.164V58.3941H135.811V48.2328H145.164V38.0703H154.517V48.2328H163.869V58.3941Z" fill="white" fill-opacity="0.4"/>
<path d="M117.087 75.0723C110.114 88.5086 96.8637 97.5892 81.6562 97.5892C66.542 97.5892 53.3663 88.6226 46.3576 75.3284C42.8368 68.6576 40.9877 61.1003 40.995 53.4105C40.995 29.0121 59.2004 9.23282 81.6562 9.23282C96.6732 9.23282 109.78 18.0876 116.823 31.2459L152.363 9.01017C138.237 -17.4841 111.863 -35.3086 81.6562 -35.3086C36.5579 -35.3086 0 4.41294 0 53.4105C0 69.4852 3.93585 84.5595 10.8147 97.562C24.9053 124.196 51.3537 142.131 81.6562 142.131C112.014 142.131 138.504 124.124 152.575 97.4115L117.087 75.0723Z" fill="white" fill-opacity="0.4"/>
</svg>
