<svg width="28" height="27" viewBox="0 0 28 27" fill="none" xmlns="http://www.w3.org/2000/svg">
<g clip-path="url(#clip0_694_1883)">
<path fill-rule="evenodd" clip-rule="evenodd" d="M19.4482 15.3203C21.0466 16.4053 22.1666 17.8753 22.1666 19.8353V23.3353H26.8332V19.8353C26.8332 17.292 22.6682 15.787 19.4482 15.3203Z" fill="white"/>
<path d="M10.5007 14.0013C13.078 14.0013 15.1673 11.912 15.1673 9.33464C15.1673 6.75731 13.078 4.66797 10.5007 4.66797C7.92332 4.66797 5.83398 6.75731 5.83398 9.33464C5.83398 11.912 7.92332 14.0013 10.5007 14.0013Z" fill="white"/>
<path fill-rule="evenodd" clip-rule="evenodd" d="M17.4999 14.0013C20.0782 14.0013 22.1666 11.913 22.1666 9.33464C22.1666 6.7563 20.0782 4.66797 17.4999 4.66797C16.9516 4.66797 16.4382 4.78464 15.9482 4.94797C16.9166 6.14964 17.4999 7.67797 17.4999 9.33464C17.4999 10.9913 16.9166 12.5196 15.9482 13.7213C16.4382 13.8846 16.9516 14.0013 17.4999 14.0013Z" fill="white"/>
<path fill-rule="evenodd" clip-rule="evenodd" d="M10.5003 15.168C7.38533 15.168 1.16699 16.7313 1.16699 19.8346V23.3346H19.8337V19.8346C19.8337 16.7313 13.6153 15.168 10.5003 15.168Z" fill="white"/>
</g>
<defs>
<clipPath id="clip0_694_1883">
<rect width="28" height="28" fill="white"/>
</clipPath>
</defs>
</svg>
