<svg width="20" height="20" viewBox="0 0 20 20" fill="none" xmlns="http://www.w3.org/2000/svg">
<g clip-path="url(#clip0_721_3458)">
<path fill-rule="evenodd" clip-rule="evenodd" d="M8.41406 2.58341C5.1924 2.58341 2.58073 5.19509 2.58073 8.41675C2.58073 11.6384 5.1924 14.2501 8.41406 14.2501C11.6357 14.2501 14.2474 11.6384 14.2474 8.41675C14.2474 5.19509 11.6357 2.58341 8.41406 2.58341ZM0.914062 8.41675C0.914062 4.27461 4.27193 0.916748 8.41406 0.916748C12.5562 0.916748 15.9141 4.27461 15.9141 8.41675C15.9141 12.5589 12.5562 15.9167 8.41406 15.9167C4.27193 15.9167 0.914062 12.5589 0.914062 8.41675Z" fill="white"/>
<path fill-rule="evenodd" clip-rule="evenodd" d="M12.9941 12.9941C13.3195 12.6686 13.8472 12.6686 14.1726 12.9941L18.8393 17.6607C19.1647 17.9862 19.1647 18.5138 18.8393 18.8393C18.5138 19.1647 17.9862 19.1647 17.6607 18.8393L12.9941 14.1726C12.6686 13.8472 12.6686 13.3195 12.9941 12.9941Z" fill="white"/>
</g>
<defs>
<clipPath id="clip0_721_3458">
<rect width="20" height="20" fill="white"/>
</clipPath>
</defs>
</svg>
